<svg xmlns="http://www.w3.org/2000/svg" width="320" height="320" viewBox="0 0 320 320" role="img" aria-label="Sıcakkanlı ayı avatarı"><rect width="320" height="320" rx="38" fill="#57c9a0"></rect><circle cx="160" cy="309" r="105" fill="#0b1220" opacity=".1"></circle><path d="M31 64q23 12 43-3M246 50q16 14 37 4" fill="none" stroke="#d9f7e6" stroke-width="10" stroke-linecap="round" opacity=".45"></path><circle cx="91" cy="87" r="39" fill="#8a5f16" stroke="#0b1220" stroke-width="5" stroke-linecap="round" stroke-linejoin="round"></circle><circle cx="229" cy="87" r="39" fill="#8a5f16" stroke="#0b1220" stroke-width="5" stroke-linecap="round" stroke-linejoin="round"></circle><circle cx="91" cy="87" r="20" fill="#c98a22"></circle><circle cx="229" cy="87" r="20" fill="#c98a22"></circle><path d="M55 300q10-69 105-79 95 10 105 79" fill="#8a5f16" stroke="#0b1220" stroke-width="5" stroke-linecap="round" stroke-linejoin="round"></path><path d="M71 151q0-94 89-102 89 8 89 102-2 89-89 100-87-11-89-100Z" fill="#8a5f16" stroke="#0b1220" stroke-width="5" stroke-linecap="round" stroke-linejoin="round"></path><ellipse cx="160" cy="193" rx="57" ry="47" fill="#c98a22" stroke="#0b1220" stroke-width="5" stroke-linecap="round" stroke-linejoin="round"></ellipse><ellipse cx="125" cy="153" rx="14" ry="16" fill="#fff8ec" stroke="#0b1220" stroke-width="5" stroke-linecap="round" stroke-linejoin="round"></ellipse><circle cx="129" cy="157" r="7" fill="#0b1220"></circle><ellipse cx="197" cy="153" rx="14" ry="16" fill="#fff8ec" stroke="#0b1220" stroke-width="5" stroke-linecap="round" stroke-linejoin="round"></ellipse><circle cx="193" cy="157" r="7" fill="#0b1220"></circle><path d="M143 181q17-13 34 0-2 18-17 18t-17-18Z" fill="#0b1220"></path><path d="M160 200v12M160 212q-18 14-32 0M160 212q18 14 32 0" fill="none" stroke="#0b1220" stroke-width="5" stroke-linecap="round" stroke-linejoin="round"></path></svg>
