<svg xmlns="http://www.w3.org/2000/svg" width="320" height="320" viewBox="0 0 320 320" role="img" aria-label="Ateşli ejderha avatarı"><rect width="320" height="320" rx="38" fill="#26365a"></rect><circle cx="160" cy="309" r="105" fill="#0b1220" opacity=".1"></circle><path d="M31 64q23 12 43-3M246 50q16 14 37 4" fill="none" stroke="#5c7fa8" stroke-width="10" stroke-linecap="round" opacity=".45"></path><path d="m96 83-22-54 47 31M224 83l22-54-47 31" fill="#f2b23c" stroke="#0b1220" stroke-width="5" stroke-linecap="round" stroke-linejoin="round"></path><path d="m118 62 13-38 29 31 28-33 15 42" fill="#d9536a" stroke="#0b1220" stroke-width="5" stroke-linecap="round" stroke-linejoin="round"></path><path d="M53 300q8-71 107-80 99 9 107 80" fill="#b93737" stroke="#0b1220" stroke-width="5" stroke-linecap="round" stroke-linejoin="round"></path><path d="M70 136q4-82 90-89 86 7 90 89l5 55q-9 57-95 65-86-8-95-65Z" fill="#e8543f" stroke="#0b1220" stroke-width="5" stroke-linecap="round" stroke-linejoin="round"></path><path d="M85 125q75 30 150 0" fill="none" stroke="#b93737" stroke-width="13" stroke-linecap="round"></path><path d="M101 145q21-16 42 2M177 147q21-18 43-1" fill="none" stroke="#0b1220" stroke-width="5" stroke-linecap="round" stroke-linejoin="round"></path><ellipse cx="125" cy="160" rx="15" ry="14" fill="#f2b23c" stroke="#0b1220" stroke-width="5" stroke-linecap="round" stroke-linejoin="round"></ellipse><circle cx="131" cy="162" r="6" fill="#0b1220"></circle><ellipse cx="200" cy="160" rx="15" ry="14" fill="#f2b23c" stroke="#0b1220" stroke-width="5" stroke-linecap="round" stroke-linejoin="round"></ellipse><circle cx="194" cy="162" r="6" fill="#0b1220"></circle><circle cx="146" cy="188" r="5" fill="#0b1220"></circle><circle cx="178" cy="188" r="5" fill="#0b1220"></circle><path d="M114 207q46 33 94-2-5 41-48 45-42-4-46-43Z" fill="#0b1220" stroke="#0b1220" stroke-width="5" stroke-linecap="round" stroke-linejoin="round"></path><path d="m131 214 11 18 12-17 12 18 12-18 11 15" fill="#fff8ec"></path></svg>
