<svg xmlns="http://www.w3.org/2000/svg" width="320" height="320" viewBox="0 0 320 320" role="img" aria-label="Canlı setteki kahraman avatarının profesyonel yorumu"><rect width="320" height="320" rx="38" fill="#d9536a"></rect><circle cx="160" cy="309" r="105" fill="#0b1220" opacity=".1"></circle><path d="M31 64q23 12 43-3M246 50q16 14 37 4" fill="none" stroke="#ffb9c4" stroke-width="10" stroke-linecap="round" opacity=".45"></path><path d="M53 300q8-68 107-79 99 11 107 79" fill="#26365a" stroke="#0b1220" stroke-width="5" stroke-linecap="round" stroke-linejoin="round"></path><path d="M92 146q0-87 68-93 70 6 68 94-2 85-68 93-66-8-68-94Z" fill="#e6c79a" stroke="#0b1220" stroke-width="5" stroke-linecap="round" stroke-linejoin="round"></path><path d="M90 128Q78 72 119 46q43-28 84 3 26 19 30 67-24-9-38-34-38 22-88 13-2 19-17 33Z" fill="#26365a" stroke="#0b1220" stroke-width="5" stroke-linecap="round" stroke-linejoin="round"></path><path d="M88 143h144l-14 49q-28 17-55-4-29 22-61 3Z" fill="#f2b23c" stroke="#0b1220" stroke-width="5" stroke-linecap="round" stroke-linejoin="round"></path><ellipse cx="126" cy="164" rx="13" ry="12" fill="#fff8ec" stroke="#0b1220" stroke-width="5" stroke-linecap="round" stroke-linejoin="round"></ellipse><circle cx="130" cy="166" r="6" fill="#0b1220"></circle><ellipse cx="199" cy="163" rx="13" ry="12" fill="#fff8ec" stroke="#0b1220" stroke-width="5" stroke-linecap="round" stroke-linejoin="round"></ellipse><circle cx="196" cy="165" r="6" fill="#0b1220"></circle><path d="M160 169q-5 21 5 23l9-2M130 210q31 20 63-4" fill="none" stroke="#0b1220" stroke-width="5" stroke-linecap="round" stroke-linejoin="round"></path><path d="m111 251 49 47 49-47" fill="#e8543f" stroke="#0b1220" stroke-width="5" stroke-linecap="round" stroke-linejoin="round"></path><path d="m160 266 12 15-12 15-12-15Z" fill="#f2b23c"></path></svg>
