<svg xmlns="http://www.w3.org/2000/svg" width="320" height="320" viewBox="0 0 320 320" role="img" aria-label="Eski mumya avatarı"><rect width="320" height="320" rx="38" fill="#c98a22"></rect><defs><clipPath id="muh"><path d="M73 147q0-91 87-100 87 9 87 100-2 92-87 103-85-11-87-103Z"/></clipPath><clipPath id="mub"><path d="M53 300q9-70 107-80 98 10 107 80"/></clipPath></defs><circle cx="160" cy="309" r="105" fill="#0b1220" opacity=".1"></circle><path d="M53 300q9-70 107-80 98 10 107 80" fill="#cdc6b4" stroke="#0b1220" stroke-width="5" stroke-linecap="round" stroke-linejoin="round"></path><g clip-path="url(#mub)"><path d="M40 262L290 286" stroke="#0b1220" stroke-width="22" fill="none"></path><path d="M40 262L290 286" stroke="#fff8ec" stroke-width="16" fill="none"></path><path d="M40 290L290 274" stroke="#0b1220" stroke-width="22" fill="none"></path><path d="M40 290L290 274" stroke="#fff8ec" stroke-width="16" fill="none"></path></g><path d="M73 147q0-91 87-100 87 9 87 100-2 92-87 103-85-11-87-103Z" fill="#b8b0a0" stroke="#0b1220" stroke-width="5" stroke-linecap="round" stroke-linejoin="round"></path><g clip-path="url(#muh)"><path d="M60 84L262 64" stroke="#0b1220" stroke-width="22" stroke-linecap="butt" fill="none"></path><path d="M60 108L262 92" stroke="#0b1220" stroke-width="22" stroke-linecap="butt" fill="none"></path><path d="M60 228L262 242" stroke="#0b1220" stroke-width="22" stroke-linecap="butt" fill="none"></path><path d="M60 252L262 258" stroke="#0b1220" stroke-width="22" stroke-linecap="butt" fill="none"></path><path d="M60 84L262 64" stroke="#fff8ec" stroke-width="16" stroke-linecap="butt" fill="none"></path><path d="M60 108L262 92" stroke="#fff8ec" stroke-width="16" stroke-linecap="butt" fill="none"></path><path d="M60 228L262 242" stroke="#fff8ec" stroke-width="16" stroke-linecap="butt" fill="none"></path><path d="M60 252L262 258" stroke="#fff8ec" stroke-width="16" stroke-linecap="butt" fill="none"></path></g><path d="M73 147q0-91 87-100 87 9 87 100-2 92-87 103-85-11-87-103Z" fill="none" stroke="#0b1220" stroke-width="5" stroke-linecap="round" stroke-linejoin="round"></path><path d="M104 139q22-14 42 4M176 143q21-17 43-2" fill="none" stroke="#0b1220" stroke-width="5" stroke-linecap="round" stroke-linejoin="round"></path><ellipse cx="127" cy="159" rx="13" ry="15" fill="#0b1220"></ellipse><circle cx="123" cy="154" r="4" fill="#fff8ec"></circle><ellipse cx="200" cy="159" rx="13" ry="15" fill="#0b1220"></ellipse><circle cx="196" cy="154" r="4" fill="#fff8ec"></circle><path d="M132 211q28 18 57-3" fill="none" stroke="#0b1220" stroke-width="5" stroke-linecap="round" stroke-linejoin="round"></path></svg>
