<svg xmlns="http://www.w3.org/2000/svg" width="320" height="320" viewBox="0 0 320 320" role="img" aria-label="Sessiz ninja avatarı"><rect width="320" height="320" rx="38" fill="#e8543f"></rect><circle cx="160" cy="309" r="105" fill="#0b1220" opacity=".1"></circle><path d="M31 64q23 12 43-3M246 50q16 14 37 4" fill="none" stroke="#ffb7a6" stroke-width="10" stroke-linecap="round" opacity=".45"></path><path d="M52 300q9-70 108-80 99 10 108 80" fill="#0b1220" stroke="#0b1220" stroke-width="5" stroke-linecap="round" stroke-linejoin="round"></path><path d="M70 147q0-92 90-101 90 9 90 101-2 91-90 102-88-11-90-102Z" fill="#26365a" stroke="#0b1220" stroke-width="5" stroke-linecap="round" stroke-linejoin="round"></path><path d="M83 132q77-33 154 0l-7 59q-70 34-140 0Z" fill="#e6c79a" stroke="#0b1220" stroke-width="5" stroke-linecap="round" stroke-linejoin="round"></path><path d="M105 148q21-15 43 2M174 150q21-17 43-1" fill="none" stroke="#0b1220" stroke-width="5" stroke-linecap="round" stroke-linejoin="round"></path><path d="M107 165q20 15 40 0M175 165q20 15 40 0" fill="none" stroke="#0b1220" stroke-width="5" stroke-linecap="round" stroke-linejoin="round"></path><path d="M70 102h180v27H70Z" fill="#d9536a" stroke="#0b1220" stroke-width="5" stroke-linecap="round" stroke-linejoin="round"></path><path d="m244 109 49 16-47 21" fill="#d9536a" stroke="#0b1220" stroke-width="5" stroke-linecap="round" stroke-linejoin="round"></path><path d="M121 224h78" stroke="#5c7fa8" stroke-width="9" stroke-linecap="round"></path></svg>
