<svg xmlns="http://www.w3.org/2000/svg" width="320" height="320" viewBox="0 0 320 320" role="img" aria-label="Canlı setteki profesör avatarının profesyonel yorumu"><rect width="320" height="320" rx="38" fill="#4a9dd9"></rect><circle cx="160" cy="309" r="105" fill="#0b1220" opacity=".1"></circle><path d="M31 64q23 12 43-3M246 50q16 14 37 4" fill="none" stroke="#bce7ff" stroke-width="10" stroke-linecap="round" opacity=".45"></path><path d="M58 300q8-68 102-78 94 10 102 78" fill="#26365a" stroke="#0b1220" stroke-width="5" stroke-linecap="round" stroke-linejoin="round"></path><circle cx="83" cy="124" r="36" fill="#c9d3e2" stroke="#0b1220" stroke-width="5" stroke-linecap="round" stroke-linejoin="round"></circle><circle cx="237" cy="124" r="36" fill="#c9d3e2" stroke="#0b1220" stroke-width="5" stroke-linecap="round" stroke-linejoin="round"></circle><circle cx="100" cy="82" r="27" fill="#c9d3e2" stroke="#0b1220" stroke-width="5" stroke-linecap="round" stroke-linejoin="round"></circle><circle cx="220" cy="82" r="27" fill="#c9d3e2" stroke="#0b1220" stroke-width="5" stroke-linecap="round" stroke-linejoin="round"></circle><path d="M91 149q0-86 69-92 71 6 69 93-2 85-69 94-67-9-69-95Z" fill="#e6c79a" stroke="#0b1220" stroke-width="5" stroke-linecap="round" stroke-linejoin="round"></path><path d="M107 143q16-10 31 1M183 142q16-9 31 2" fill="none" stroke="#0b1220" stroke-width="5" stroke-linecap="round" stroke-linejoin="round"></path><ellipse cx="125" cy="158" rx="17" ry="18" fill="#fff8ec" stroke="#0b1220" stroke-width="5" stroke-linecap="round" stroke-linejoin="round"></ellipse><circle cx="129" cy="160" r="6" fill="#0b1220"></circle><ellipse cx="201" cy="157" rx="17" ry="18" fill="#fff8ec" stroke="#0b1220" stroke-width="5" stroke-linecap="round" stroke-linejoin="round"></ellipse><circle cx="197" cy="159" r="6" fill="#0b1220"></circle><circle cx="125" cy="158" r="24" fill="none" stroke="#26365a" stroke-width="7"></circle><circle cx="201" cy="157" r="24" fill="none" stroke="#26365a" stroke-width="7"></circle><path d="M149 157h28M161 162q-6 24 5 27l10-2" fill="none" stroke="#26365a" stroke-width="7"></path><path d="M121 202q39-22 78 0-39 19-78 0Z" fill="#c9d3e2" stroke="#0b1220" stroke-width="5" stroke-linecap="round" stroke-linejoin="round"></path><path d="M129 219q31 17 61-3" fill="none" stroke="#0b1220" stroke-width="5" stroke-linecap="round" stroke-linejoin="round"></path></svg>
