<svg xmlns="http://www.w3.org/2000/svg" width="320" height="320" viewBox="0 0 320 320" role="img" aria-label="Canlı setteki uzaylı avatarının profesyonel yorumu"><rect width="320" height="320" rx="38" fill="#2fbf71"></rect><circle cx="160" cy="309" r="105" fill="#0b1220" opacity=".1"></circle><path d="M31 64q23 12 43-3M246 50q16 14 37 4" fill="none" stroke="#bff1d3" stroke-width="10" stroke-linecap="round" opacity=".45"></path><path d="M119 67 97 35M201 67l22-32" fill="none" stroke="#8cbf3f" stroke-width="9" stroke-linecap="round"></path><circle cx="93" cy="29" r="13" fill="#8cbf3f" stroke="#0b1220" stroke-width="5" stroke-linecap="round" stroke-linejoin="round"></circle><circle cx="227" cy="29" r="13" fill="#8cbf3f" stroke="#0b1220" stroke-width="5" stroke-linecap="round" stroke-linejoin="round"></circle><path d="M60 300q9-68 100-77 91 9 100 77" fill="#26365a" stroke="#0b1220" stroke-width="5" stroke-linecap="round" stroke-linejoin="round"></path><path d="M77 135q5-85 83-88 79 3 84 88 4 77-84 116-86-39-83-116Z" fill="#8cbf3f" stroke="#0b1220" stroke-width="5" stroke-linecap="round" stroke-linejoin="round"></path><path d="M103 119q57-30 114 0" fill="none" stroke="#6aa72d" stroke-width="10" stroke-linecap="round"></path><ellipse cx="160" cy="155" rx="42" ry="32" fill="#fff8ec" stroke="#0b1220" stroke-width="5" stroke-linecap="round" stroke-linejoin="round"></ellipse><ellipse cx="165" cy="159" rx="18" ry="20" fill="#0b1220"></ellipse><circle cx="158" cy="151" r="6" fill="#fff8ec"></circle><circle cx="119" cy="192" r="6" fill="#65972f"></circle><circle cx="205" cy="188" r="5" fill="#65972f"></circle><path d="M132 213q29 18 58-3" fill="none" stroke="#0b1220" stroke-width="5" stroke-linecap="round" stroke-linejoin="round"></path><path d="M109 239q51 28 103-3l13 34q-65 27-129 0Z" fill="#4fb3c9" stroke="#0b1220" stroke-width="5" stroke-linecap="round" stroke-linejoin="round"></path></svg>
