<svg xmlns="http://www.w3.org/2000/svg" width="320" height="320" viewBox="0 0 320 320" role="img" aria-label="Steteskoplu doktor avatarı"><rect width="320" height="320" rx="38" fill="#5c7fa8"></rect><circle cx="160" cy="309" r="105" fill="#0b1220" opacity=".1"></circle><path d="M31 64q23 12 43-3M246 50q16 14 37 4" fill="none" stroke="#cfe3f5" stroke-width="10" stroke-linecap="round" opacity=".45"></path><path d="M58 300q8-68 102-78 94 10 102 78" fill="#fff8ec" stroke="#0b1220" stroke-width="5" stroke-linecap="round" stroke-linejoin="round"></path><path d="M130 226l30 38 30-38v74h-60Z" fill="#3fa9a0" stroke="#0b1220" stroke-width="5" stroke-linecap="round" stroke-linejoin="round"></path><path d="M112 232q-6 52 36 58M208 232q6 52-36 58" fill="none" stroke="#26365a" stroke-width="8" stroke-linecap="round"></path><circle cx="160" cy="290" r="13" fill="#c9d3e2" stroke="#0b1220" stroke-width="5" stroke-linecap="round" stroke-linejoin="round"></circle><path d="M92 250h26" fill="none" stroke="#e8543f" stroke-width="7" stroke-linecap="round"></path><ellipse cx="90" cy="168" rx="12" ry="17" fill="#c68e5f" stroke="#0b1220" stroke-width="5" stroke-linecap="round" stroke-linejoin="round"></ellipse><ellipse cx="230" cy="168" rx="12" ry="17" fill="#c68e5f" stroke="#0b1220" stroke-width="5" stroke-linecap="round" stroke-linejoin="round"></ellipse><path d="M91 149q0-86 69-92 71 6 69 93-2 85-69 94-67-9-69-95Z" fill="#c68e5f" stroke="#0b1220" stroke-width="5" stroke-linecap="round" stroke-linejoin="round"></path><path d="M90 138q-8-74 70-84 78 10 70 84-8-22-22-26-14 12-30 4-10 12-20 6-12 10-24 2-14 8-24-4-20 8-24 18Z" fill="#1d1a19" stroke="#0b1220" stroke-width="5" stroke-linecap="round" stroke-linejoin="round"></path><path d="M110 144q15-10 30 1M182 145q15-11 30-1" fill="none" stroke="#0b1220" stroke-width="5" stroke-linecap="round" stroke-linejoin="round"></path><circle cx="127" cy="164" r="8" fill="#0b1220"></circle><circle cx="129" cy="161" r="2.88" fill="#fff8ec"></circle><circle cx="195" cy="164" r="8" fill="#0b1220"></circle><circle cx="197" cy="161" r="2.88" fill="#fff8ec"></circle><path d="M160 168q-6 22 5 25l9-2" fill="none" stroke="#0b1220" stroke-width="5" stroke-linecap="round" stroke-linejoin="round"></path><path d="M132 204q28 20 58-2" fill="none" stroke="#0b1220" stroke-width="5" stroke-linecap="round" stroke-linejoin="round"></path></svg>
