<svg xmlns="http://www.w3.org/2000/svg" width="320" height="320" viewBox="0 0 320 320" role="img" aria-label="Kukuletalı maskeli gece bekçisi avatarı"><rect width="320" height="320" rx="38" fill="#f2b23c"></rect><circle cx="160" cy="309" r="105" fill="#0b1220" opacity=".1"></circle><path d="M31 64q23 12 43-3M246 50q16 14 37 4" fill="none" stroke="#fff1b8" stroke-width="10" stroke-linecap="round" opacity=".45"></path><path d="M60 300q-8-150 42-214 26-36 58-40 32 4 58 40 50 64 42 214Z" fill="#26365a" stroke="#0b1220" stroke-width="5" stroke-linecap="round" stroke-linejoin="round"></path><path d="M96 176q-2-92 64-100 66 8 64 100v70H96Z" fill="#1b2440" stroke="#0b1220" stroke-width="5" stroke-linecap="round" stroke-linejoin="round"></path><path d="M92 300q6-56 68-74 62 18 68 74Z" fill="#3b4a6b" stroke="#0b1220" stroke-width="5" stroke-linecap="round" stroke-linejoin="round"></path><path d="M168 254a19 19 0 1 0 0 32 15 15 0 1 1 0-32Z" fill="#fff8ec" stroke="#0b1220" stroke-width="5" stroke-linecap="round" stroke-linejoin="round"></path><path d="M104 162q0-68 56-74 56 6 56 74-2 62-56 72-54-10-56-72Z" fill="#c68e5f" stroke="#0b1220" stroke-width="5" stroke-linecap="round" stroke-linejoin="round"></path><path d="M100 150q60-26 120 0l-6 30q-24 10-40-4l-14-6-14 6q-16 14-40 4Z" fill="#7b5cc4" stroke="#0b1220" stroke-width="5" stroke-linecap="round" stroke-linejoin="round"></path><ellipse cx="133" cy="163" rx="11" ry="9" fill="#fff8ec"></ellipse><circle cx="135" cy="164" r="5.5" fill="#0b1220"></circle><ellipse cx="187" cy="163" rx="11" ry="9" fill="#fff8ec"></ellipse><circle cx="185" cy="164" r="5.5" fill="#0b1220"></circle><path d="M160 184q-5 14 4 17l7-2" fill="none" stroke="#0b1220" stroke-width="5" stroke-linecap="round" stroke-linejoin="round"></path><path d="M140 210q22 10 42-4" fill="none" stroke="#0b1220" stroke-width="5" stroke-linecap="round" stroke-linejoin="round"></path></svg>
