<svg xmlns="http://www.w3.org/2000/svg" width="320" height="320" viewBox="0 0 320 320" role="img" aria-label="Zırhlı savaş robotu avatarı"><rect width="320" height="320" rx="38" fill="#e8543f"></rect><circle cx="160" cy="309" r="105" fill="#0b1220" opacity=".1"></circle><path d="M31 64q23 12 43-3M246 50q16 14 37 4" fill="none" stroke="#ffb7a6" stroke-width="10" stroke-linecap="round" opacity=".45"></path><path d="M94 300l12-72h108l12 72Z" fill="#8496b2" stroke="#0b1220" stroke-width="5" stroke-linecap="round" stroke-linejoin="round"></path><circle cx="160" cy="262" r="17" fill="#4fb3c9" stroke="#0b1220" stroke-width="5" stroke-linecap="round" stroke-linejoin="round"></circle><circle cx="160" cy="262" r="7" fill="#fff8ec"></circle><path d="M14 300q-4-72 40-96 44-16 68 12l-6 84Z" fill="#5c7fa8" stroke="#0b1220" stroke-width="5" stroke-linecap="round" stroke-linejoin="round"></path><path d="M306 300q4-72-40-96-44-16-68 12l6 84Z" fill="#5c7fa8" stroke="#0b1220" stroke-width="5" stroke-linecap="round" stroke-linejoin="round"></path><path d="M22 262q34-20 90-12M298 262q-34-20-90-12" fill="none" stroke="#f2b23c" stroke-width="9" stroke-linecap="round"></path><path d="M40 222q18-12 40-12M280 222q-18-12-40-12" fill="none" stroke="#fff8ec" stroke-width="7" stroke-linecap="round" opacity="0.75"></path><path d="M76 120h18v56H76ZM226 120h18v56h-18Z" fill="#5c7fa8" stroke="#0b1220" stroke-width="5" stroke-linecap="round" stroke-linejoin="round"></path><path d="M138 66l22-52 22 52Z" fill="#f2b23c" stroke="#0b1220" stroke-width="5" stroke-linecap="round" stroke-linejoin="round"></path><path d="M160 14l22 52h-12Z" fill="#c98a22"></path><path d="M138 66l22-52 22 52Z" fill="none" stroke="#0b1220" stroke-width="5" stroke-linecap="round" stroke-linejoin="round"></path><path d="M96 100l24-42h80l24 42 6 80-22 46h-96l-22-46Z" fill="#aab8cc" stroke="#0b1220" stroke-width="5" stroke-linecap="round" stroke-linejoin="round"></path><path d="M200 58l24 42 6 80-22 46h-26l20-46-4-80-22-42Z" fill="#8496b2"></path><path d="M96 100l24-42h80l24 42 6 80-22 46h-96l-22-46Z" fill="none" stroke="#0b1220" stroke-width="5" stroke-linecap="round" stroke-linejoin="round"></path><path d="M122 74q18-8 38-8" fill="none" stroke="#fff8ec" stroke-width="8" stroke-linecap="round" opacity="0.75"></path><path d="M104 126l56 16 56-16-4 32-52 12-52-12Z" fill="#0b1220" stroke="#0b1220" stroke-width="5" stroke-linecap="round" stroke-linejoin="round"></path><path d="M118 136l42 12 42-12-2 12-40 9-40-9Z" fill="#ffd23f"></path><path d="M124 139l14 4" stroke="#fff8ec" stroke-width="4" stroke-linecap="round"></path><path d="M114 186h92l-12 32h-68Z" fill="#5c7fa8" stroke="#0b1220" stroke-width="5" stroke-linecap="round" stroke-linejoin="round"></path><path d="M136 196v14M152 196v16M168 196v16M184 196v14" fill="none" stroke="#0b1220" stroke-width="5" stroke-linecap="round"></path><path d="M200 86l10 16M208 84l8 14" fill="none" stroke="#0b1220" stroke-width="3.5" stroke-linecap="round"></path></svg>
